<svg xmlns="http://www.w3.org/2000/svg" viewBox="0 0 24 24" fill="currentColor" width="24px" height="24px">
  <path d="M0 0h24v24H0z" fill="none"/>
  <path d="M16.5,6.5c-1.22,0-2.4,0.54-3.2,1.5L7,14.36C6.42,15.01,6.02,15.78,6.02,16.63c0,1.74,1.4,3.16,3.14,3.16
    c0.84,0,1.61-0.32,2.2-0.9l5.2-5.22c0.36-0.36,0.56-0.84,0.56-1.36c0-1.06-0.87-1.93-1.93-1.93c-0.51,0-0.99,0.2-1.36,0.56
    l-4.3,4.3c-0.1,0.1-0.16,0.23-0.16,0.36c0,0.27,0.22,0.49,0.49,0.49c0.13,0,0.26-0.05,0.36-0.15l4.3-4.3c0.45-0.45,1.18-0.45,1.63,0
    c0.21,0.21,0.33,0.49,0.33,0.78c0,0.29-0.12,0.57-0.33,0.78l-5.2,5.22c-0.58,0.58-1.36,0.9-2.2,0.9c-1.45,0-2.64-1.2-2.64-2.66
    c0-0.64,0.24-1.26,0.68-1.73l6.32-6.36c0.66-0.75,1.64-1.2,2.64-1.2c1.91,0,3.46,1.55,3.46,3.46c0,0.92-0.36,1.79-1.02,2.46
    l-5.2,5.22c-0.95,0.95-2.21,1.46-3.54,1.46C8.23,21.5,6,19.26,6,16.63c0-1.24,0.48-2.42,1.34-3.3l6.3-6.36
    c0.45-0.45,1.18-0.45,1.63,0c0.22,0.21,0.33,0.49,0.33,0.78c0,0.29-0.12,0.57-0.33,0.78l-6.32,6.36c-0.41,0.41-0.68,0.98-0.68,1.57
    c0,1.18,0.95,2.13,2.13,2.13c0.56,0,1.1-0.22,1.5-0.62l5.2-5.22c0.34-0.34,0.54-0.8,0.54-1.29c0-0.92-0.75-1.67-1.67-1.67
    c-0.49,0-0.95,0.19-1.29,0.54l-4.3,4.3c-0.1,0.1-0.15,0.23-0.15,0.36c0,0.27,0.22,0.49,0.49,0.49c0.13,0,0.26-0.06,0.36-0.16
    l4.3-4.3c0.66-0.66,1.52-1.02,2.46-1.02c1.91,0,3.46,1.55,3.46,3.46c0,0.9-0.36,1.78-1.02,2.46l-5.2,5.22c-0.76,0.76-1.77,1.18-2.85,1.18
    c-2.31,0-4.2-1.89-4.2-4.2c0-0.99,0.38-1.97,1.06-2.69l5.3-5.34c0.28-0.28,0.75-0.28,1.03,0c0.14,0.14,0.22,0.33,0.22,0.53
    c0,0.2-0.08,0.39-0.22,0.53L9.22,15.2c-0.3,0.3-0.5,0.71-0.5,1.14c0,0.89,0.73,1.63,1.63,1.63c0.43,0,0.84-0.19,1.14-0.5l5.2-5.22
    c0.42-0.42,0.66-0.99,0.66-1.6C17,7.4,16.29,6.5,16.5,6.5z"/>
</svg>
